<svg xmlns="http://www.w3.org/2000/svg" xmlns:xlink="http://www.w3.org/1999/xlink" width="212" height="214" viewBox="0 0 212 214">
  <defs>
    <filter id="Rectangle_34044" x="0" y="0" width="212" height="214" filterUnits="userSpaceOnUse">
      <feOffset dy="3" input="SourceAlpha"/>
      <feGaussianBlur stdDeviation="3" result="blur"/>
      <feFlood flood-opacity="0.161"/>
      <feComposite operator="in" in2="blur"/>
      <feComposite in="SourceGraphic"/>
    </filter>
  </defs>
  <g id="Group_128044" data-name="Group 128044" transform="translate(-981 -2403)">
    <g id="Group_119985" data-name="Group 119985" transform="translate(4743 8906)">
      <g transform="matrix(1, 0, 0, 1, -3762, -6503)" filter="url(#Rectangle_34044)">
        <rect id="Rectangle_34044-2" data-name="Rectangle 34044" width="194" height="196" rx="39" transform="translate(9 6)" fill="#5e30f4"/>
      </g>
    </g>
    <g id="app-development" transform="translate(1049.86 2458.356)">
      <path id="Path_270524" data-name="Path 270524" d="M58.142,75.753v2.322H15.069V16.2H58.142V33.906a4.217,4.217,0,0,1,1.8-.389h3.23V8.239A5.814,5.814,0,0,0,57.421,2.5H15.776a5.754,5.754,0,0,0-5.739,5.739V89.048a5.745,5.745,0,0,0,5.739,5.739H57.421a5.766,5.766,0,0,0,5.754-5.739V76.33H60.3a4.217,4.217,0,0,1-2.163-.577ZM32.936,7.907h7.325a1.442,1.442,0,1,1,0,2.884H32.936a1.442,1.442,0,1,1,0-2.884Zm8.436,80.506H31.825a1.442,1.442,0,1,1,0-2.884h9.546a1.442,1.442,0,1,1,0,2.884Z" fill="#fff"/>
      <path id="Path_270525" data-name="Path 270525" d="M34.382,31.946a1.442,1.442,0,0,0,2.039-.01l6.026-6.083a1.441,1.441,0,0,0,0-2.029l-6.026-6.083a1.442,1.442,0,0,0-2.049,2.029l5.021,5.068-5.021,5.068a1.442,1.442,0,0,0,.01,2.039Z" transform="translate(11.119 6.887)" fill="#fff"/>
      <path id="Path_270526" data-name="Path 270526" d="M24.788,17.732a1.439,1.439,0,0,0-2.039.01l-6.026,6.083a1.441,1.441,0,0,0,0,2.029l6.026,6.083A1.442,1.442,0,1,0,24.8,29.907l-5.02-5.068,5.02-5.068a1.442,1.442,0,0,0-.01-2.039Z" transform="translate(2.914 6.886)" fill="#fff"/>
      <path id="Path_270527" data-name="Path 270527" d="M32.477,15.107l-8.464,21.3a1.442,1.442,0,1,0,2.68,1.065l8.464-21.3a1.442,1.442,0,1,0-2.68-1.065Z" transform="translate(6.45 5.437)" fill="#fff"/>
      <path id="Path_270528" data-name="Path 270528" d="M68.373,40.878l-3.167-.358a13.915,13.915,0,0,0-1.618-3.847V36.66l1.873-2.64a1.512,1.512,0,0,0-.164-1.944l-2.268-2.268a1.512,1.512,0,0,0-2.013-.112l-2.485,1.984a13.964,13.964,0,0,0-3.873-1.567l-.54-3.21a1.512,1.512,0,0,0-1.492-1.262H49.41a1.512,1.512,0,0,0-1.5,1.343l-.358,3.179A14.317,14.317,0,0,0,43.7,31.78L41.051,29.9a1.512,1.512,0,0,0-1.947.165l-2.26,2.266a1.512,1.512,0,0,0-.112,2.009l1.989,2.5a13.615,13.615,0,0,0-1.58,3.873l-3.2.539a1.512,1.512,0,0,0-1.261,1.491v3.205a1.512,1.512,0,0,0,1.342,1.5l3.155.357a14.192,14.192,0,0,0,1.631,3.86v.013l-1.87,2.627a1.512,1.512,0,0,0,.163,1.946l2.269,2.269a1.512,1.512,0,0,0,2.011.114l2.5-1.987a14.046,14.046,0,0,0,3.86,1.567l.54,3.21a1.512,1.512,0,0,0,1.491,1.262h3.216a1.513,1.513,0,0,0,1.5-1.343l.358-3.179A13.546,13.546,0,0,0,58.7,56.546l2.651,1.883a1.512,1.512,0,0,0,1.947-.165L65.554,56a1.512,1.512,0,0,0,.113-2.009L63.69,51.5a14.207,14.207,0,0,0,1.567-3.886l3.2-.539a1.512,1.512,0,0,0,1.261-1.491v-3.2a1.512,1.512,0,0,0-1.343-1.5Zm-17.168,9.5a6.217,6.217,0,1,1,6.2-6.217A6.217,6.217,0,0,1,51.205,50.38Z" transform="translate(10.527 10.757)" fill="#fff"/>
    </g>
  </g>
</svg>
